<mxfile host="app.diagrams.net" modified="2021-12-17T12:27:01.043Z" agent="5.0 (Windows NT 10.0; Win64; x64) AppleWebKit/537.36 (KHTML, like Gecko) Chrome/96.0.4664.110 Safari/537.36 Edg/96.0.1054.57" etag="YT4lMstO9PIV1TVLW1mq" version="15.9.6" type="github">
  <diagram id="PCMa7M_t4KPaJl307eau" name="Page-1">
    <mxGraphModel dx="1871" dy="1679" grid="1" gridSize="10" guides="1" tooltips="1" connect="1" arrows="1" fold="1" page="1" pageScale="1" pageWidth="850" pageHeight="1100" math="0" shadow="0">
      <root>
        <mxCell id="0" />
        <mxCell id="1" parent="0" />
        <mxCell id="wjQ5FOuZceBZZrbnuaqa-4" value="" style="rounded=0;whiteSpace=wrap;html=1;" vertex="1" parent="1">
          <mxGeometry x="-10" y="-270" width="850" height="1430" as="geometry" />
        </mxCell>
        <mxCell id="wjQ5FOuZceBZZrbnuaqa-6" value="&lt;div&gt;{&lt;/div&gt;&lt;blockquote style=&quot;margin: 0 0 0 40px ; border: none ; padding: 0px&quot;&gt;&lt;div&gt;&quot;Clients&quot;: {&lt;/div&gt;&lt;div&gt;&quot;(ClientID)PartitionKey&quot;: &quot;(string)&quot;,&lt;/div&gt;&lt;div&gt;&quot;RowKey&quot;: &quot;(string)&quot;,&lt;/div&gt;&lt;div&gt;&quot;Timestamp&quot;: &quot;(DateTime)&quot;,&lt;/div&gt;&lt;div&gt;&quot;Discount&quot;: &quot;(Int)&quot;,&lt;/div&gt;&lt;div&gt;&quot;IsDemo&quot;: &quot;(boolean)&quot;,&lt;/div&gt;&lt;div&gt;&quot;LiveAgenbtPubSubConnection&quot;: &quot;(string)&quot;,&lt;/div&gt;&lt;div&gt;&quot;LiveAgentPubSubHubName&quot;: &quot;(string)&quot;,&lt;/div&gt;&lt;div&gt;&quot;OtherAmount&quot;: &quot;(int)&quot;,&lt;/div&gt;&lt;div&gt;&quot;PlatformAmount&quot;: &quot;(int)&quot;,&lt;/div&gt;&lt;div&gt;&quot;PlatformFeeType&quot;: &quot;(string)&quot;,&lt;/div&gt;&lt;div&gt;&quot;TransactionFeePrice&quot;: &quot;(int)&quot;,&lt;/div&gt;&lt;div&gt;&quot;company&quot;: &quot;(string)&quot;,&lt;/div&gt;&lt;div&gt;&quot;company_logo&quot;: &quot;(string)&quot;,&lt;/div&gt;&lt;div&gt;&quot;dialog360apikey&quot;: &quot;(string)&quot;,&lt;/div&gt;&lt;div&gt;&quot;main_contact&quot;: &quot;(string)&quot;,&lt;/div&gt;&lt;div&gt;&quot;main_contact_email&quot;: &quot;(string)&quot;,&lt;/div&gt;&lt;div&gt;&quot;main_contact_phone&quot;: &quot;(string)&quot;,&lt;/div&gt;&lt;div&gt;&quot;onboarded_date&quot;: &quot;datetime&quot;,&lt;/div&gt;&lt;div&gt;&quot;payment_mode&quot;: &quot;(int)&quot;,&lt;/div&gt;&lt;div&gt;&quot;prod_connection_string&quot;: &quot;(string)&quot;,&lt;/div&gt;&lt;div&gt;&quot;reg_address&quot;: &quot;(string)&quot;,&lt;/div&gt;&lt;div&gt;&quot;reg_city&quot;: &quot;(string)&quot;,&lt;/div&gt;&lt;div&gt;&quot;reg_country&quot;: &quot;(string)&quot;,&lt;/div&gt;&lt;div&gt;&quot;reg_name&quot;: &quot;(string)&quot;,&lt;/div&gt;&lt;div&gt;&quot;reg_state&quot;: &quot;(string)&quot;,&lt;/div&gt;&lt;div&gt;&quot;staging_connection_string&quot;: &quot;(string)&quot;,&lt;/div&gt;&lt;div&gt;&quot;twilioAccountSid&quot;: &quot;(string)&quot;,&lt;/div&gt;&lt;div&gt;&quot;twilioAuthToken&quot;: &quot;(string)&quot;,&lt;/div&gt;&lt;div&gt;&quot;wa_provider&quot;: &quot;(int)&quot;,&lt;/div&gt;&lt;div&gt;&quot;website&quot;: &quot;(string)&quot;,&lt;/div&gt;&lt;div&gt;&quot;LiveAgentPubSubConnection&quot;: &quot;(string)&quot;,&lt;/div&gt;&lt;div&gt;&quot;TransactionFeeType&quot;: &quot;(string)&quot;,&lt;/div&gt;&lt;div&gt;&quot;cloudStorageServiceKey&quot;: &quot;(string)&quot;,&lt;/div&gt;&lt;div&gt;&quot;dialogflow_projectId&quot;: &quot;(string)&quot;,&lt;/div&gt;&lt;div&gt;&quot;knowledgeBase_Id&quot;: &quot;(string)&quot;,&lt;/div&gt;&lt;div&gt;&quot;IndustryType&quot;: &quot;(string)&quot;,&lt;/div&gt;&lt;div&gt;&quot;Currency&quot;: &quot;(string)&quot;,&lt;/div&gt;&lt;div&gt;&quot;Location&quot;: &quot;(string)&quot;,&lt;/div&gt;&lt;div&gt;&quot;ResourceGroupName&quot;: &quot;(string)&quot;,&lt;/div&gt;&lt;div&gt;&quot;StorageAcctName&quot;: &quot;(string)&quot;,&lt;/div&gt;&lt;div&gt;&quot;SubscriptionID&quot;: &quot;(string)&quot;,&lt;/div&gt;&lt;div&gt;&quot;platformFeeType&quot;: &quot;(string)&quot;,&lt;/div&gt;&lt;div&gt;&quot;BotPhoneNumber&quot;: &quot;(string)&quot;,&lt;/div&gt;&lt;div&gt;&lt;br&gt;&lt;/div&gt;&lt;div&gt;&quot;ClientBots&quot;: [&lt;/div&gt;&lt;div&gt;{&lt;/div&gt;&lt;div&gt;&quot;(ClientID)PartitionKey&quot;: &quot;(string)&quot;,&lt;/div&gt;&lt;div&gt;&quot;RowKey&quot;: &quot;(string)&quot;,&lt;/div&gt;&lt;div&gt;&quot;Timestamp&quot;: &quot;datetime&quot;,&lt;/div&gt;&lt;div&gt;&quot;BotAddress&quot;: &quot;(string)&quot;,&lt;/div&gt;&lt;div&gt;&quot;IsActive&quot;: &quot;(boolean)&quot;,&lt;/div&gt;&lt;div&gt;&quot;LgContainer&quot;: &quot;(string)&quot;,&lt;/div&gt;&lt;div&gt;&quot;LiveAgentURL&quot;: &quot;(string)&quot;,&lt;/div&gt;&lt;div&gt;&quot;StorageConnectionString&quot;: &quot;(string)&quot;,&lt;/div&gt;&lt;div&gt;&quot;TranscriptContainer&quot;: &quot;(string)&quot;,&lt;/div&gt;&lt;div&gt;&quot;BotName&quot;: &quot;(string)&quot;&lt;/div&gt;&lt;div&gt;}&lt;/div&gt;&lt;div&gt;],&lt;/div&gt;&lt;div&gt;&lt;br&gt;&lt;/div&gt;&lt;div&gt;&quot;License&quot;: {&lt;/div&gt;&lt;div&gt;&quot;(ClientID)PartitionKey&quot;: &quot;(string)&quot;,&lt;/div&gt;&lt;div&gt;&quot;RowKey&quot;: &quot;(string)&quot;,&lt;/div&gt;&lt;div&gt;&quot;Timestamp&quot;: &quot;datetime&quot;,&lt;/div&gt;&lt;div&gt;&quot;AddressBook&quot;: &quot;(boolean)&quot;,&lt;/div&gt;&lt;div&gt;&quot;BotAnalytics&quot;: &quot;(boolean)&quot;,&lt;/div&gt;&lt;div&gt;&quot;Conversations&quot;: &quot;(boolean)&quot;,&lt;/div&gt;&lt;div&gt;&quot;Dashboard&quot;: &quot;(boolean)&quot;,&lt;/div&gt;&lt;div&gt;&quot;Leads&quot;: &quot;(boolean)&quot;,&lt;/div&gt;&lt;div&gt;&quot;LiveAgents&quot;: &quot;(boolean)&quot;,&lt;/div&gt;&lt;div&gt;&quot;NotificationStatus&quot;: &quot;(boolean)&quot;,&lt;/div&gt;&lt;div&gt;&quot;NumberOfLiveAgents&quot;: &quot;(int)&quot;,&lt;/div&gt;&lt;div&gt;&quot;PortalAccess&quot;: &quot;(boolean)&quot;,&lt;/div&gt;&lt;div&gt;&quot;Send_Notifications&quot;: &quot;(boolean)&quot;,&lt;/div&gt;&lt;div&gt;&quot;Send_Notifications_Bulk&quot;: &quot;(boolean)&quot;,&lt;/div&gt;&lt;div&gt;&quot;Settings&quot;: &quot;(boolean)&quot;,&lt;/div&gt;&lt;div&gt;&quot;Support&quot;: &quot;(boolean)&quot;,&lt;/div&gt;&lt;div&gt;&quot;QnA_Setting&quot;: &quot;(boolean)&quot;&lt;/div&gt;&lt;div&gt;},&lt;/div&gt;&lt;div&gt;&lt;br&gt;&lt;/div&gt;&lt;div&gt;&quot;subscription&quot;: {&lt;/div&gt;&lt;div&gt;&quot;PartitionKey&quot;: &quot;(string)&quot;,&lt;/div&gt;&lt;div&gt;&quot;(ClientID)RowKey&quot;: &quot;(string)&quot;,&lt;/div&gt;&lt;div&gt;&quot;Timestamp&quot;: &quot;datetime&quot;,&lt;/div&gt;&lt;div&gt;&quot;ClientID&quot;: &quot;(string)&quot;,&lt;/div&gt;&lt;div&gt;&quot;Location&quot;: &quot;(string)&quot;,&lt;/div&gt;&lt;div&gt;&quot;ResourceGroupName&quot;: &quot;(string)&quot;,&lt;/div&gt;&lt;div&gt;&quot;StorageAcctName&quot;: &quot;(string)&quot;&lt;/div&gt;&lt;div&gt;}&lt;/div&gt;&lt;div&gt;}&lt;/div&gt;&lt;/blockquote&gt;&lt;div&gt;&lt;span&gt;	&lt;/span&gt;}&lt;/div&gt;" style="rounded=0;whiteSpace=wrap;html=1;align=left;" vertex="1" parent="1">
          <mxGeometry x="40" y="-190" width="310" height="1330" as="geometry" />
        </mxCell>
        <mxCell id="wjQ5FOuZceBZZrbnuaqa-7" value="&lt;div&gt;{&lt;/div&gt;&lt;blockquote style=&quot;margin: 0 0 0 40px ; border: none ; padding: 0px&quot;&gt;&lt;div&gt;&quot;UsageHistory&quot;: {&lt;/div&gt;&lt;div&gt;&quot;(ClientID)PartitionKey&quot;: &quot;(string)&quot;,&lt;/div&gt;&lt;div&gt;&quot;RowKey&quot;: &quot;(string)&quot;,&lt;/div&gt;&lt;div&gt;&quot;Timestamp&quot;: &quot;datetime&quot;,&lt;/div&gt;&lt;div&gt;&quot;Recepeints&quot;: &quot;(string)&quot;&lt;/div&gt;&lt;div&gt;}&lt;/div&gt;&lt;/blockquote&gt;&lt;div&gt;&lt;span&gt;	&lt;/span&gt;}&lt;/div&gt;" style="rounded=0;whiteSpace=wrap;html=1;align=left;" vertex="1" parent="1">
          <mxGeometry x="500" y="-90" width="260" height="200" as="geometry" />
        </mxCell>
        <mxCell id="wjQ5FOuZceBZZrbnuaqa-8" value="&lt;div&gt;{&lt;/div&gt;&lt;blockquote style=&quot;margin: 0 0 0 40px ; border: none ; padding: 0px&quot;&gt;&lt;div&gt;&quot;AuditLeads&quot;: {&lt;/div&gt;&lt;div&gt;&quot;(ClientID)PartitionKey&quot;: &quot;(string)&quot;,&lt;/div&gt;&lt;div&gt;&quot;RowKey&quot;: &quot;double&quot;,&lt;/div&gt;&lt;div&gt;&quot;Timestamp&quot;: &quot;datetime&quot;,&lt;/div&gt;&lt;div&gt;&quot;Channel&quot;: &quot;(string)&quot;,&lt;/div&gt;&lt;div&gt;&quot;LeadType&quot;: &quot;(string)&quot;,&lt;/div&gt;&lt;div&gt;&quot;ConversationID&quot;: &quot;(string)&quot;&lt;/div&gt;&lt;div&gt;}&lt;/div&gt;&lt;/blockquote&gt;&lt;div&gt;&lt;span&gt;	&lt;/span&gt;}&lt;/div&gt;" style="rounded=0;whiteSpace=wrap;html=1;align=left;" vertex="1" parent="1">
          <mxGeometry x="500" y="280" width="260" height="220" as="geometry" />
        </mxCell>
        <mxCell id="wjQ5FOuZceBZZrbnuaqa-9" value="&lt;div&gt;{&lt;/div&gt;&lt;blockquote style=&quot;margin: 0 0 0 40px ; border: none ; padding: 0px&quot;&gt;&lt;div&gt;&quot;ClientsAlertConfig&quot;: {&lt;/div&gt;&lt;div&gt;&quot;PartitionKey&quot;: &quot;(string)&quot;,&lt;/div&gt;&lt;div&gt;&quot;(ClientID)RowKey&quot;: &quot;(string)&quot;,&lt;/div&gt;&lt;div&gt;&quot;Timestamp&quot;: &quot;datetime&quot;,&lt;/div&gt;&lt;div&gt;&quot;AlertName&quot;: &quot;(string)&quot;,&lt;/div&gt;&lt;div&gt;&quot;ClientID&quot;: &quot;(string)&quot;,&lt;/div&gt;&lt;div&gt;&quot;EmailEnabled&quot;: &quot;(boolean)&quot;,&lt;/div&gt;&lt;div&gt;&quot;EmailNotificationIDs&quot;: &quot;(string)&quot;,&lt;/div&gt;&lt;div&gt;&quot;WhatsAppEnabled&quot;: &quot;(boolean)&quot;,&lt;/div&gt;&lt;div&gt;&quot;WhatsAppNotificationNumbers&quot;: &quot;(string)&quot;,&lt;/div&gt;&lt;div&gt;&quot;Enabled&quot;: &quot;(boolean)&quot;&lt;/div&gt;&lt;div&gt;}&lt;/div&gt;&lt;/blockquote&gt;&lt;div&gt;&lt;span&gt;	&lt;/span&gt;}&lt;/div&gt;" style="rounded=0;whiteSpace=wrap;html=1;align=left;" vertex="1" parent="1">
          <mxGeometry x="500" y="690" width="260" height="250" as="geometry" />
        </mxCell>
        <mxCell id="wjQ5FOuZceBZZrbnuaqa-11" style="edgeStyle=orthogonalEdgeStyle;rounded=0;orthogonalLoop=1;jettySize=auto;html=1;exitX=0.5;exitY=1;exitDx=0;exitDy=0;" edge="1" parent="1" source="wjQ5FOuZceBZZrbnuaqa-9" target="wjQ5FOuZceBZZrbnuaqa-9">
          <mxGeometry relative="1" as="geometry" />
        </mxCell>
        <mxCell id="wjQ5FOuZceBZZrbnuaqa-13" value="&lt;h1&gt;&lt;font style=&quot;font-size: 18px ; font-weight: normal&quot;&gt;Client doc with ClientBot,Licesnse and Subscription as nested doc&lt;/font&gt;&lt;/h1&gt;" style="text;html=1;strokeColor=none;fillColor=none;spacing=5;spacingTop=-20;whiteSpace=wrap;overflow=hidden;rounded=0;" vertex="1" parent="1">
          <mxGeometry x="40" y="-260" width="310" height="60" as="geometry" />
        </mxCell>
        <mxCell id="wjQ5FOuZceBZZrbnuaqa-14" value="&lt;h1&gt;&lt;span style=&quot;font-weight: normal&quot;&gt;&lt;font style=&quot;font-size: 18px&quot;&gt;Audit Leads Doc&lt;/font&gt;&lt;/span&gt;&lt;/h1&gt;" style="text;html=1;strokeColor=none;fillColor=none;spacing=5;spacingTop=-20;whiteSpace=wrap;overflow=hidden;rounded=0;fontSize=18;" vertex="1" parent="1">
          <mxGeometry x="500" y="200" width="260" height="60" as="geometry" />
        </mxCell>
        <mxCell id="wjQ5FOuZceBZZrbnuaqa-15" value="&lt;h1&gt;&lt;font style=&quot;font-size: 18px ; font-weight: normal&quot;&gt;Usage History Doc&lt;/font&gt;&lt;/h1&gt;" style="text;html=1;strokeColor=none;fillColor=none;spacing=5;spacingTop=-20;whiteSpace=wrap;overflow=hidden;rounded=0;fontSize=18;" vertex="1" parent="1">
          <mxGeometry x="500" y="-170" width="260" height="70" as="geometry" />
        </mxCell>
        <mxCell id="wjQ5FOuZceBZZrbnuaqa-16" value="&lt;h1&gt;&lt;font style=&quot;font-size: 18px ; font-weight: normal&quot;&gt;Client Alert Config Doc&lt;/font&gt;&lt;/h1&gt;" style="text;html=1;strokeColor=none;fillColor=none;spacing=5;spacingTop=-20;whiteSpace=wrap;overflow=hidden;rounded=0;fontSize=18;" vertex="1" parent="1">
          <mxGeometry x="500" y="610" width="260" height="70" as="geometry" />
        </mxCell>
        <mxCell id="wjQ5FOuZceBZZrbnuaqa-17" style="edgeStyle=orthogonalEdgeStyle;rounded=0;orthogonalLoop=1;jettySize=auto;html=1;exitX=0.5;exitY=1;exitDx=0;exitDy=0;fontSize=18;" edge="1" parent="1" source="wjQ5FOuZceBZZrbnuaqa-15" target="wjQ5FOuZceBZZrbnuaqa-15">
          <mxGeometry relative="1" as="geometry" />
        </mxCell>
        <mxCell id="wjQ5FOuZceBZZrbnuaqa-18" value="" style="endArrow=classic;startArrow=classic;html=1;rounded=0;fontSize=18;entryX=0.742;entryY=0.03;entryDx=0;entryDy=0;entryPerimeter=0;exitX=0.154;exitY=0.4;exitDx=0;exitDy=0;exitPerimeter=0;" edge="1" parent="1" source="wjQ5FOuZceBZZrbnuaqa-7" target="wjQ5FOuZceBZZrbnuaqa-6">
          <mxGeometry width="50" height="50" relative="1" as="geometry">
            <mxPoint x="420" y="-90" as="sourcePoint" />
            <mxPoint x="470" y="-140" as="targetPoint" />
            <Array as="points">
              <mxPoint x="430" y="-10" />
              <mxPoint x="430" y="-150" />
            </Array>
          </mxGeometry>
        </mxCell>
        <mxCell id="wjQ5FOuZceBZZrbnuaqa-19" value="" style="endArrow=classic;html=1;rounded=0;fontSize=18;" edge="1" parent="1">
          <mxGeometry width="50" height="50" relative="1" as="geometry">
            <mxPoint x="430" y="-10" as="sourcePoint" />
            <mxPoint x="540" y="350" as="targetPoint" />
            <Array as="points">
              <mxPoint x="430" y="350" />
            </Array>
          </mxGeometry>
        </mxCell>
        <mxCell id="wjQ5FOuZceBZZrbnuaqa-20" value="" style="endArrow=classic;html=1;rounded=0;fontSize=18;entryX=0.154;entryY=0.28;entryDx=0;entryDy=0;entryPerimeter=0;" edge="1" parent="1" target="wjQ5FOuZceBZZrbnuaqa-9">
          <mxGeometry width="50" height="50" relative="1" as="geometry">
            <mxPoint x="430" y="350" as="sourcePoint" />
            <mxPoint x="470" y="560" as="targetPoint" />
            <Array as="points">
              <mxPoint x="430" y="760" />
            </Array>
          </mxGeometry>
        </mxCell>
      </root>
    </mxGraphModel>
  </diagram>
</mxfile>
